<?xml version="1.0" encoding="UTF-8"?><?xml-stylesheet type="text/css" href="../../css/styles.css" ?>
<!DOCTYPE svg PUBLIC "-//W3C//DTD SVG 1.1//EN" "http://www.w3.org/Graphics/SVG/1.1/DTD/svg11.dtd">
<svg xmlns="http://www.w3.org/2000/svg" xml:space="preserve" width="1024px" height="1024px" shape-rendering="geometricPrecision" text-rendering="geometricPrecision" image-rendering="optimizeQuality" fill-rule="evenodd" clip-rule="evenodd" viewBox="0 0 10240 10240" xmlns:xlink="http://www.w3.org/1999/xlink">
	<title>painters_palette_brush icon</title>
	<desc>painters_palette_brush icon from the IconExperience.com O-Collection. Copyright by INCORS GmbH (www.incors.com).</desc>
	<path id="curve3" fill="#FFFFFF" class="whiteIconColor" d="M7559 8114c912,-909 1353,-2076 1397,-3208 -242,329 -491,650 -755,963 -67,79 -134,158 -202,236 -11,144 -118,261 -258,288 -23,25 -46,51 -70,76 6,29 8,59 8,90 0,99 -30,191 -81,267 50,57 81,131 81,213 0,177 -143,320 -320,320 -150,0 -277,-104 -311,-244 -28,28 -56,56 -84,84 -263,260 -524,515 -829,726 -36,25 -75,42 -114,51 37,52 59,116 59,185 0,177 -143,320 -320,320 -14,0 -28,-1 -41,-3 -32,94 -121,161 -226,161 -22,0 -44,-3 -65,-9 -7,52 -18,104 -32,156 -76,277 -234,511 -440,692 919,-188 1848,-611 2604,-1365zm-1479 -5714c0,-57 10,-111 28,-161 -9,1 -18,1 -28,1 -177,0 -320,-143 -320,-320 0,-177 143,-320 320,-320 177,0 320,143 320,320 0,9 0,19 -1,28 50,-18 105,-28 161,-28 99,0 191,30 267,81 57,-50 131,-81 213,-81 177,0 320,143 320,320 0,177 -143,320 -320,320 -9,0 -18,0 -27,-1 -6,16 -12,32 -20,48 29,29 47,69 47,113 0,23 -5,46 -14,66 9,30 14,61 14,94 0,177 -143,320 -320,320 -177,0 -320,-143 -320,-320 0,-9 0,-18 1,-27 -16,-6 -32,-12 -48,-20 -29,29 -69,47 -113,47 -88,0 -160,-72 -160,-160 0,-44 18,-84 47,-113 -30,-63 -47,-133 -47,-207zm-1758 -668l0 0c0,-177 143,-320 320,-320 177,0 320,143 320,320 0,14 -1,28 -3,41 94,32 161,121 161,226 0,132 -107,239 -239,239 -114,0 -209,-80 -233,-187l-6 0 0 0c0,177 -143,320 -320,320 -177,0 -320,-143 -320,-320 -177,0 -320,-143 -320,-320 0,-126 73,-235 179,-287l0 -4c0,-88 72,-160 160,-160 88,0 160,72 160,160 0,9 -1,17 -2,25 86,57 143,155 143,266zm-156 5313c4,-21 9,-42 17,-63 44,-116 96,-229 155,-338 33,-60 82,-106 139,-135 0,-65 20,-127 60,-183 213,-300 470,-557 731,-815 429,-424 871,-836 1332,-1226 148,-125 298,-247 449,-367 -5,-23 -8,-48 -8,-73 0,-177 143,-320 320,-320 54,0 106,14 150,38 79,-59 158,-117 237,-175 266,-194 536,-384 805,-573 -268,-580 -664,-1079 -1171,-1432 -1899,-1324 -4979,-961 -6343,1756 -1218,2425 939,1454 1112,2516 206,1269 -2734,1424 -912,3204 159,155 389,296 671,412 338,-147 440,-378 553,-727 131,-406 233,-747 542,-1063 246,-252 593,-412 944,-437 74,-5 146,-5 218,1zm39 -1572c372,-378 366,-986 -12,-1358 -378,-372 -986,-366 -1358,12 -372,378 -366,986 12,1358 378,372 986,366 1358,-12z"/>
	<path id="curve2" fill="#FFFFFF" class="whiteIconColor" d="M4802 7705c784,866 1,1895 -1045,1895 -784,0 -849,0 -1808,0 542,-199 691,-565 818,-958 103,-319 192,-657 466,-938 365,-373 1081,-539 1569,0z"/>
	<path id="curve1" fill="#FFFFFF" class="whiteIconColor" d="M4619 6796c-51,94 -97,193 -137,299 207,78 395,206 553,378 139,151 249,321 322,502 109,-40 211,-86 309,-137 -83,-200 -209,-398 -383,-587 -192,-210 -420,-361 -664,-455z"/>
	<path id="curve0" fill="#FFFFFF" class="whiteIconColor" d="M9834 2708c-21,-21 -42,-41 -63,-62 -103,-102 -262,-114 -380,-30 -1424,1017 -2312,1554 -3899,3123 -246,243 -492,487 -695,772 269,113 520,285 734,518 187,204 326,418 423,634 291,-201 539,-446 786,-690 1587,-1569 2097,-2481 3125,-3889 85,-117 72,-274 -31,-376z"/>
</svg>
