<?xml version="1.0" encoding="UTF-8"?>
<?xml-stylesheet type="text/css" href="../../css/styles.css" ?>
<!DOCTYPE svg PUBLIC "-//W3C//DTD SVG 1.1//EN" "http://www.w3.org/Graphics/SVG/1.1/DTD/svg11.dtd">
<svg xmlns="http://www.w3.org/2000/svg" xml:space="preserve" width="1024px" height="1024px" shape-rendering="geometricPrecision" text-rendering="geometricPrecision" image-rendering="optimizeQuality" fill-rule="evenodd" clip-rule="evenodd" viewBox="0 0 10240 10240" xmlns:xlink="http://www.w3.org/1999/xlink">
	<title>briefcase_document icon</title>
	<desc>briefcase_document icon from the IconExperience.com O-Collection. Copyright by INCORS GmbH (www.incors.com).</desc>
	<path id="curve4" fill="#FFFFFF" class="whiteIconColor" d="M4480 3200l2670 0c353,0 656,126 905,375l1170 1170c249,249 375,553 375,905l0 3950 -5120 0 0 -6400zm3200 960l960 960 -960 0 0 -960zm-2560 -320l1600 0c176,0 320,144 320,320l0 1600 1600 0c176,0 320,144 320,320l0 2880 -3840 0 0 -5120z"/>
	<path id="curve3" fill="#FFFFFF" class="whiteIconColor" d="M4160 7680c-857,0 -1742,0 -2880,0 -352,0 -640,-287 -640,-640l0 -2485c170,152 394,245 640,245l640 0 0 640c0,176 144,320 320,320l960 0c176,0 320,-144 320,-320l0 -640 640 0 0 2880z"/>
	<path id="curve2" fill="#FFFFFF" class="whiteIconColor" d="M1280 1920c2560,0 3840,0 6400,0 352,0 639,287 640,639l0 828 -39 -39c-309,-309 -694,-469 -1131,-469l-2670 0c-176,0 -320,144 -320,320l0 1280 -640 0 0 -320c0,-176 -144,-320 -320,-320l-960 0c-176,0 -320,144 -320,320l0 320 -640 0c-352,0 -639,-287 -640,-639l0 -1281c0,-353 287,-640 640,-640z"/>
	<path id="curve1" fill="#FFFFFF" class="whiteIconColor" d="M2240,4160 3200,4160 3200,5440 2240,5440z"/>
	<path id="curve0" fill="#FFFFFF" class="whiteIconColor" d="M3520 640l1920 0c353,0 640,288 640,640l0 320 -640 0 0 -320 -1920 0 0 320 -640 0 0 -320c0,-353 287,-640 640,-640z"/>
</svg>
